{
	"meshes":[{
		"name":"Controler2-V-Ray Material",
		"primitives":[{
			"attributes":{
				"POSITION":1,
				"NORMAL":2,
				"TEXCOORD_0":3
			},
			"indices":0,
			"material":0
		}]
	},
	{
		"name":"Controler2-Blend Material",
		"primitives":[{
			"attributes":{
				"POSITION":5,
				"NORMAL":6,
				"TEXCOORD_0":7
			},
			"indices":4,
			"material":1
		}]
	},
	{
		"name":"Controler2-V-Ray Material",
		"primitives":[{
			"attributes":{
				"POSITION":9,
				"NORMAL":10,
				"TEXCOORD_0":11
			},
			"indices":8,
			"material":2
		}]
	},
	{
		"name":"Controler2-V-Ray Material",
		"primitives":[{
			"attributes":{
				"POSITION":13,
				"NORMAL":14,
				"TEXCOORD_0":15
			},
			"indices":12,
			"material":3
		}]
	},
	{
		"name":"Controler-V-Ray Material",
		"primitives":[{
			"attributes":{
				"POSITION":17,
				"NORMAL":18,
				"TEXCOORD_0":19
			},
			"indices":16,
			"material":4
		}]
	},
	{
		"name":"Controler-Blend Material",
		"primitives":[{
			"attributes":{
				"POSITION":21,
				"NORMAL":22,
				"TEXCOORD_0":23
			},
			"indices":20,
			"material":5
		}]
	},
	{
		"name":"Controler-V-Ray Material",
		"primitives":[{
			"attributes":{
				"POSITION":25,
				"NORMAL":26,
				"TEXCOORD_0":27
			},
			"indices":24,
			"material":6
		}]
	},
	{
		"name":"Controler-V-Ray Material",
		"primitives":[{
			"attributes":{
				"POSITION":29,
				"NORMAL":30,
				"TEXCOORD_0":31
			},
			"indices":28,
			"material":7
		}]
	},
	{
		"name":"Low_Poly_TV-V-Ray Material",
		"primitives":[{
			"attributes":{
				"POSITION":33,
				"NORMAL":34,
				"TEXCOORD_0":35
			},
			"indices":32,
			"material":8
		}]
	},
	{
		"name":"Low_Poly_TV-Light Material",
		"primitives":[{
			"attributes":{
				"POSITION":37,
				"NORMAL":38,
				"TEXCOORD_0":39
			},
			"indices":36,
			"material":9
		}]
	},
	{
		"name":"Low_Poly_TV-V-Ray Material",
		"primitives":[{
			"attributes":{
				"POSITION":41,
				"NORMAL":42,
				"TEXCOORD_0":43
			},
			"indices":40,
			"material":10
		}]
	}],
	"asset":{
		"version":"2.0",
		"generator":"Maxon Cinema 4D 2024.2.0 (#200000219)"
	},
	"scenes":[{
		"nodes":[0,
		1,
		2]
	}],
	"nodes":[{
		"name":"Controler2",
		"translation":[27.32996940612793,
		0.0,
		-5.26942777633667],
		"rotation":[0.0,
		0.0,
		0.0,
		-1.0],
		"scale":[1.0,
		1.0,
		1.0],
		"children":[3,
		4,
		5,
		6]
	},
	{
		"name":"Controler",
		"translation":[20.108963012695314,
		0.15615040063858033,
		7.080104827880859],
		"rotation":[0.0,
		0.0,
		0.0,
		-1.0],
		"scale":[1.0,
		1.0,
		1.0],
		"children":[7,
		8,
		9,
		10]
	},
	{
		"name":"Low_Poly_TV",
		"translation":[5.54581880569458,
		27.202272415161134,
		9.502598762512207],
		"rotation":[0.0,
		0.0,
		0.0,
		-1.0],
		"scale":[1.0,
		1.0,
		1.0],
		"children":[11,
		12,
		13]
	},
	{
		"name":"Controler2-V-Ray Material",
		"mesh":0
	},
	{
		"name":"Controler2-Blend Material",
		"mesh":1
	},
	{
		"name":"Controler2-V-Ray Material",
		"mesh":2
	},
	{
		"name":"Controler2-V-Ray Material",
		"mesh":3
	},
	{
		"name":"Controler-V-Ray Material",
		"mesh":4
	},
	{
		"name":"Controler-Blend Material",
		"mesh":5
	},
	{
		"name":"Controler-V-Ray Material",
		"mesh":6
	},
	{
		"name":"Controler-V-Ray Material",
		"mesh":7
	},
	{
		"name":"Low_Poly_TV-V-Ray Material",
		"mesh":8
	},
	{
		"name":"Low_Poly_TV-Light Material",
		"mesh":9
	},
	{
		"name":"Low_Poly_TV-V-Ray Material",
		"mesh":10
	}],
	"accessors":[{
		"bufferView":0,
		"type":"SCALAR",
		"max":[1259],
		"componentType":5123,
		"count":1260,
		"byteOffset":0,
		"min":[0]
	},
	{
		"bufferView":1,
		"type":"VEC3",
		"max":[19.401836395263673,
		4.887665271759033,
		3.4436285495758058],
		"componentType":5126,
		"count":1260,
		"byteOffset":0,
		"min":[-13.34527587890625,
		-0.5868425369262695,
		-12.14611530303955]
	},
	{
		"bufferView":1,
		"type":"VEC3",
		"max":[0.7665807008743286,
		0.8632302284240723,
		0.8507433533668518],
		"componentType":5126,
		"count":1260,
		"byteOffset":12,
		"min":[-0.9376830458641052,
		-0.8663156628608704,
		-0.8505979776382446]
	},
	{
		"bufferView":1,
		"type":"VEC2",
		"max":[1.0,
		1.0],
		"componentType":5126,
		"count":1260,
		"byteOffset":24,
		"min":[0.0,
		0.0]
	},
	{
		"bufferView":2,
		"type":"SCALAR",
		"max":[11],
		"componentType":5123,
		"count":12,
		"byteOffset":0,
		"min":[0]
	},
	{
		"bufferView":3,
		"type":"VEC3",
		"max":[30.63689422607422,
		0.4036376178264618,
		5.3849663734436039],
		"componentType":5126,
		"count":12,
		"byteOffset":0,
		"min":[19.71953773498535,
		0.4036376178264618,
		-16.02861976623535]
	},
	{
		"bufferView":3,
		"type":"VEC3",
		"max":[0.0,
		1.0,
		0.0],
		"componentType":5126,
		"count":12,
		"byteOffset":12,
		"min":[0.0,
		1.0,
		0.0]
	},
	{
		"bufferView":3,
		"type":"VEC2",
		"max":[0.9880573153495789,
		0.9817874431610107],
		"componentType":5126,
		"count":12,
		"byteOffset":24,
		"min":[0.01202462613582611,
		-0.018250659108161928]
	},
	{
		"bufferView":4,
		"type":"SCALAR",
		"max":[47],
		"componentType":5123,
		"count":48,
		"byteOffset":0,
		"min":[0]
	},
	{
		"bufferView":5,
		"type":"VEC3",
		"max":[30.63689422607422,
		0.4036376178264618,
		5.3849663734436039],
		"componentType":5126,
		"count":48,
		"byteOffset":0,
		"min":[19.71953773498535,
		-1.3963624238967896,
		-16.02861976623535]
	},
	{
		"bufferView":5,
		"type":"VEC3",
		"max":[0.9966605305671692,
		0.0,
		0.9840916991233826],
		"componentType":5126,
		"count":48,
		"byteOffset":12,
		"min":[-0.9966605305671692,
		-1.0,
		-0.9840916991233826]
	},
	{
		"bufferView":5,
		"type":"VEC2",
		"max":[1.0,
		1.0],
		"componentType":5126,
		"count":48,
		"byteOffset":24,
		"min":[0.0,
		0.0]
	},
	{
		"bufferView":6,
		"type":"SCALAR",
		"max":[371],
		"componentType":5123,
		"count":372,
		"byteOffset":0,
		"min":[0]
	},
	{
		"bufferView":7,
		"type":"VEC3",
		"max":[29.15869903564453,
		0.5963624119758606,
		2.881948471069336],
		"componentType":5126,
		"count":372,
		"byteOffset":0,
		"min":[23.066734313964845,
		0.2937961220741272,
		-13.015433311462403]
	},
	{
		"bufferView":7,
		"type":"VEC3",
		"max":[0.9849649667739868,
		1.0,
		0.9840916991233826],
		"componentType":5126,
		"count":372,
		"byteOffset":12,
		"min":[-0.9849649667739868,
		-1.0,
		-0.9840916991233826]
	},
	{
		"bufferView":7,
		"type":"VEC2",
		"max":[1.0,
		1.0],
		"componentType":5126,
		"count":372,
		"byteOffset":24,
		"min":[0.0,
		0.0]
	},
	{
		"bufferView":8,
		"type":"SCALAR",
		"max":[1163],
		"componentType":5123,
		"count":1164,
		"byteOffset":0,
		"min":[0]
	},
	{
		"bufferView":9,
		"type":"VEC3",
		"max":[26.50391960144043,
		4.362492084503174,
		21.56114387512207],
		"componentType":5126,
		"count":1164,
		"byteOffset":0,
		"min":[-6.747537136077881,
		-0.687478244304657,
		-7.94666862487793]
	},
	{
		"bufferView":9,
		"type":"VEC3",
		"max":[0.7821763753890991,
		0.7834054827690125,
		0.7389042973518372],
		"componentType":5126,
		"count":1164,
		"byteOffset":12,
		"min":[-0.992317795753479,
		-0.7842965126037598,
		-0.8110446333885193]
	},
	{
		"bufferView":9,
		"type":"VEC2",
		"max":[1.0,
		1.0],
		"componentType":5126,
		"count":1164,
		"byteOffset":24,
		"min":[0.0,
		0.0]
	},
	{
		"bufferView":10,
		"type":"SCALAR",
		"max":[11],
		"componentType":5123,
		"count":12,
		"byteOffset":0,
		"min":[0]
	},
	{
		"bufferView":11,
		"type":"VEC3",
		"max":[27.765995025634767,
		0.5597879886627197,
		11.135591506958008],
		"componentType":5126,
		"count":12,
		"byteOffset":0,
		"min":[10.6961088180542,
		0.5597879886627197,
		-10.181990623474121]
	},
	{
		"bufferView":11,
		"type":"VEC3",
		"max":[0.0,
		1.0,
		0.0],
		"componentType":5126,
		"count":12,
		"byteOffset":12,
		"min":[0.0,
		1.0,
		0.0]
	},
	{
		"bufferView":11,
		"type":"VEC2",
		"max":[0.9893766641616821,
		0.9817522764205933],
		"componentType":5126,
		"count":12,
		"byteOffset":24,
		"min":[0.010407589375972748,
		-0.01821279153227806]
	},
	{
		"bufferView":12,
		"type":"SCALAR",
		"max":[47],
		"componentType":5123,
		"count":48,
		"byteOffset":0,
		"min":[0]
	},
	{
		"bufferView":13,
		"type":"VEC3",
		"max":[27.765995025634767,
		0.5597879886627197,
		11.135591506958008],
		"componentType":5126,
		"count":48,
		"byteOffset":0,
		"min":[10.6961088180542,
		-1.2402119636535645,
		-10.181990623474121]
	},
	{
		"bufferView":13,
		"type":"VEC3",
		"max":[0.8946271538734436,
		0.0,
		0.8425788879394531],
		"componentType":5126,
		"count":48,
		"byteOffset":12,
		"min":[-0.8946271538734436,
		-1.0,
		-0.8425788879394531]
	},
	{
		"bufferView":13,
		"type":"VEC2",
		"max":[1.0,
		1.0],
		"componentType":5126,
		"count":48,
		"byteOffset":24,
		"min":[0.0,
		0.0]
	},
	{
		"bufferView":14,
		"type":"SCALAR",
		"max":[371],
		"componentType":5123,
		"count":372,
		"byteOffset":0,
		"min":[0]
	},
	{
		"bufferView":15,
		"type":"VEC3",
		"max":[25.04865074157715,
		0.7525128126144409,
		7.183740139007568],
		"componentType":5126,
		"count":372,
		"byteOffset":0,
		"min":[16.169963836669923,
		0.4499465227127075,
		-7.596735954284668]
	},
	{
		"bufferView":15,
		"type":"VEC3",
		"max":[0.9992777705192566,
		1.0,
		0.9004088044166565],
		"componentType":5126,
		"count":372,
		"byteOffset":12,
		"min":[-0.9992777705192566,
		-1.0,
		-0.9004088044166565]
	},
	{
		"bufferView":15,
		"type":"VEC2",
		"max":[1.0,
		1.0],
		"componentType":5126,
		"count":372,
		"byteOffset":24,
		"min":[0.0,
		0.0]
	},
	{
		"bufferView":16,
		"type":"SCALAR",
		"max":[869],
		"componentType":5123,
		"count":870,
		"byteOffset":0,
		"min":[0]
	},
	{
		"bufferView":17,
		"type":"VEC3",
		"max":[10.33376407623291,
		7.934558391571045,
		19.914751052856447],
		"componentType":5126,
		"count":870,
		"byteOffset":0,
		"min":[-21.2544002532959,
		-27.254684448242189,
		-23.358604431152345]
	},
	{
		"bufferView":17,
		"type":"VEC3",
		"max":[0.9999825954437256,
		0.9989385604858398,
		0.9987267255783081],
		"componentType":5126,
		"count":870,
		"byteOffset":12,
		"min":[-0.9999187588691711,
		-0.9993141889572144,
		-0.9970084428787231]
	},
	{
		"bufferView":17,
		"type":"VEC2",
		"max":[1.158390998840332,
		1.0],
		"componentType":5126,
		"count":870,
		"byteOffset":24,
		"min":[0.0,
		0.0]
	},
	{
		"bufferView":18,
		"type":"SCALAR",
		"max":[65],
		"componentType":5123,
		"count":66,
		"byteOffset":0,
		"min":[0]
	},
	{
		"bufferView":19,
		"type":"VEC3",
		"max":[8.851920127868653,
		3.2087411880493166,
		14.653234481811524],
		"componentType":5126,
		"count":66,
		"byteOffset":0,
		"min":[6.6690545082092289,
		-19.423437118530275,
		-18.097089767456056]
	},
	{
		"bufferView":19,
		"type":"VEC3",
		"max":[0.9973228573799133,
		0.999370813369751,
		0.9959699511528015],
		"componentType":5126,
		"count":66,
		"byteOffset":12,
		"min":[-0.06025092676281929,
		-0.9997289776802063,
		-0.9959017038345337]
	},
	{
		"bufferView":19,
		"type":"VEC2",
		"max":[1.0248057842254639,
		1.0008165836334229],
		"componentType":5126,
		"count":66,
		"byteOffset":24,
		"min":[-0.024805745109915735,
		0.017736725509166719]
	},
	{
		"bufferView":20,
		"type":"SCALAR",
		"max":[251],
		"componentType":5123,
		"count":252,
		"byteOffset":0,
		"min":[0]
	},
	{
		"bufferView":21,
		"type":"VEC3",
		"max":[3.9596829414367677,
		26.051477432250978,
		3.4842610359191896],
		"componentType":5126,
		"count":252,
		"byteOffset":0,
		"min":[-3.945505142211914,
		6.593275547027588,
		-6.9281158447265629]
	},
	{
		"bufferView":21,
		"type":"VEC3",
		"max":[0.969960629940033,
		0.9999951124191284,
		0.8647236824035645],
		"componentType":5126,
		"count":252,
		"byteOffset":12,
		"min":[-0.9776439070701599,
		-0.8066068291664124,
		-0.8648674488067627]
	},
	{
		"bufferView":21,
		"type":"VEC2",
		"max":[1.0,
		1.0],
		"componentType":5126,
		"count":252,
		"byteOffset":24,
		"min":[0.0,
		0.0]
	}],
	"bufferViews":[{
		"buffer":0,
		"byteOffset":0,
		"byteLength":2520,
		"target":34963
	},
	{
		"buffer":0,
		"byteOffset":2520,
		"byteLength":40320,
		"target":34962,
		"byteStride":32
	},
	{
		"buffer":1,
		"byteOffset":0,
		"byteLength":24,
		"target":34963
	},
	{
		"buffer":1,
		"byteOffset":24,
		"byteLength":384,
		"target":34962,
		"byteStride":32
	},
	{
		"buffer":2,
		"byteOffset":0,
		"byteLength":96,
		"target":34963
	},
	{
		"buffer":2,
		"byteOffset":96,
		"byteLength":1536,
		"target":34962,
		"byteStride":32
	},
	{
		"buffer":3,
		"byteOffset":0,
		"byteLength":744,
		"target":34963
	},
	{
		"buffer":3,
		"byteOffset":744,
		"byteLength":11904,
		"target":34962,
		"byteStride":32
	},
	{
		"buffer":4,
		"byteOffset":0,
		"byteLength":2328,
		"target":34963
	},
	{
		"buffer":4,
		"byteOffset":2328,
		"byteLength":37248,
		"target":34962,
		"byteStride":32
	},
	{
		"buffer":5,
		"byteOffset":0,
		"byteLength":24,
		"target":34963
	},
	{
		"buffer":5,
		"byteOffset":24,
		"byteLength":384,
		"target":34962,
		"byteStride":32
	},
	{
		"buffer":6,
		"byteOffset":0,
		"byteLength":96,
		"target":34963
	},
	{
		"buffer":6,
		"byteOffset":96,
		"byteLength":1536,
		"target":34962,
		"byteStride":32
	},
	{
		"buffer":7,
		"byteOffset":0,
		"byteLength":744,
		"target":34963
	},
	{
		"buffer":7,
		"byteOffset":744,
		"byteLength":11904,
		"target":34962,
		"byteStride":32
	},
	{
		"buffer":8,
		"byteOffset":0,
		"byteLength":1740,
		"target":34963
	},
	{
		"buffer":8,
		"byteOffset":1740,
		"byteLength":27840,
		"target":34962,
		"byteStride":32
	},
	{
		"buffer":9,
		"byteOffset":0,
		"byteLength":132,
		"target":34963
	},
	{
		"buffer":9,
		"byteOffset":132,
		"byteLength":2112,
		"target":34962,
		"byteStride":32
	},
	{
		"buffer":10,
		"byteOffset":0,
		"byteLength":504,
		"target":34963
	},
	{
		"buffer":10,
		"byteOffset":504,
		"byteLength":8064,
		"target":34962,
		"byteStride":32
	}],
	"buffers":[{
		"uri":"data:application/octet-stream;base64,",
		"byteLength":42840
	},
	{
		"uri":"data:application/octet-stream;base64,",
		"byteLength":408
	},
	{
		"uri":"data:application/octet-stream;base64,",
		"byteLength":1632
	},
	{
		"uri":"data:application/octet-stream;base64,",
		"byteLength":12648
	},
	{
		"uri":"data:application/octet-stream;base64,",
		"byteLength":39576
	},
	{
		"uri":"data:application/octet-stream;base64,",
		"byteLength":408
	},
	{
		"uri":"data:application/octet-stream;base64,",
		"byteLength":1632
	},
	{
		"uri":"data:application/octet-stream;base64,",
		"byteLength":12648
	},
	{
		"uri":"data:application/octet-stream;base64,",
		"byteLength":29580
	},
	{
		"uri":"data:application/octet-stream;base64,",
		"byteLength":2244
	},
	{
		"uri":"data:application/octet-stream;base64,",
		"byteLength":8568
	}],
	"materials":[{
		"pbrMetallicRoughness":{
			"baseColorFactor":[1.0,
			1.0,
			1.0,
			1.0],
			"metallicFactor":1.0,
			"roughnessFactor":1.0
		},
		"emissiveFactor":[0.0,
		0.0,
		0.0],
		"alphaMode":"OPAQUE",
		"doubleSided":false,
		"name":""
	},
	{
		"pbrMetallicRoughness":{
			"baseColorFactor":[1.0,
			1.0,
			1.0,
			1.0],
			"metallicFactor":1.0,
			"roughnessFactor":1.0
		},
		"emissiveFactor":[0.0,
		0.0,
		0.0],
		"alphaMode":"OPAQUE",
		"doubleSided":false,
		"name":""
	},
	{
		"pbrMetallicRoughness":{
			"baseColorFactor":[1.0,
			1.0,
			1.0,
			1.0],
			"metallicFactor":1.0,
			"roughnessFactor":1.0
		},
		"emissiveFactor":[0.0,
		0.0,
		0.0],
		"alphaMode":"OPAQUE",
		"doubleSided":false,
		"name":""
	},
	{
		"pbrMetallicRoughness":{
			"baseColorFactor":[1.0,
			1.0,
			1.0,
			1.0],
			"metallicFactor":1.0,
			"roughnessFactor":1.0
		},
		"emissiveFactor":[0.0,
		0.0,
		0.0],
		"alphaMode":"OPAQUE",
		"doubleSided":false,
		"name":""
	},
	{
		"pbrMetallicRoughness":{
			"baseColorFactor":[1.0,
			1.0,
			1.0,
			1.0],
			"metallicFactor":1.0,
			"roughnessFactor":1.0
		},
		"emissiveFactor":[0.0,
		0.0,
		0.0],
		"alphaMode":"OPAQUE",
		"doubleSided":false,
		"name":""
	},
	{
		"pbrMetallicRoughness":{
			"baseColorFactor":[1.0,
			1.0,
			1.0,
			1.0],
			"metallicFactor":1.0,
			"roughnessFactor":1.0
		},
		"emissiveFactor":[0.0,
		0.0,
		0.0],
		"alphaMode":"OPAQUE",
		"doubleSided":false,
		"name":""
	},
	{
		"pbrMetallicRoughness":{
			"baseColorFactor":[1.0,
			1.0,
			1.0,
			1.0],
			"metallicFactor":1.0,
			"roughnessFactor":1.0
		},
		"emissiveFactor":[0.0,
		0.0,
		0.0],
		"alphaMode":"OPAQUE",
		"doubleSided":false,
		"name":""
	},
	{
		"pbrMetallicRoughness":{
			"baseColorFactor":[1.0,
			1.0,
			1.0,
			1.0],
			"metallicFactor":1.0,
			"roughnessFactor":1.0
		},
		"emissiveFactor":[0.0,
		0.0,
		0.0],
		"alphaMode":"OPAQUE",
		"doubleSided":false,
		"name":""
	},
	{
		"pbrMetallicRoughness":{
			"baseColorFactor":[1.0,
			1.0,
			1.0,
			1.0],
			"metallicFactor":1.0,
			"roughnessFactor":1.0
		},
		"emissiveFactor":[0.0,
		0.0,
		0.0],
		"alphaMode":"OPAQUE",
		"doubleSided":false,
		"name":""
	},
	{
		"pbrMetallicRoughness":{
			"baseColorFactor":[1.0,
			1.0,
			1.0,
			1.0],
			"metallicFactor":1.0,
			"roughnessFactor":1.0
		},
		"emissiveFactor":[0.0,
		0.0,
		0.0],
		"alphaMode":"OPAQUE",
		"doubleSided":false,
		"name":""
	},
	{
		"pbrMetallicRoughness":{
			"baseColorFactor":[1.0,
			1.0,
			1.0,
			1.0],
			"metallicFactor":1.0,
			"roughnessFactor":1.0
		},
		"emissiveFactor":[0.0,
		0.0,
		0.0],
		"alphaMode":"OPAQUE",
		"doubleSided":false,
		"name":""
	}]
}